<?xml version="1.0" standalone="no"?>
<!DOCTYPE svg PUBLIC "-//W3C//DTD SVG 20010904//EN"
 "http://www.w3.org/TR/2001/REC-SVG-20010904/DTD/svg10.dtd">
<svg version="1.0" xmlns="http://www.w3.org/2000/svg"
 width="127.000000pt" height="127.000000pt" viewBox="0 0 127.000000 127.000000"
 preserveAspectRatio="xMidYMid meet">
<metadata>
Created by potrace 1.14, written by Peter Selinger 2001-2017
</metadata>
<g transform="translate(0.000000,127.000000) scale(0.100000,-0.100000)"
fill="#000000" stroke="none">
<path d="M438 1265 c-2 -2 -23 -6 -48 -9 -38 -5 -69 -12 -135 -29 -37 -10 -96
-48 -133 -86 -92 -94 -120 -215 -119 -513 0 -210 7 -291 34 -378 45 -150 154
-219 373 -237 155 -13 513 -5 540 12 4 2 21 7 37 10 109 19 199 97 232 203 26
80 28 93 37 186 9 90 9 350 -1 436 -10 90 -13 115 -15 115 -1 0 -3 11 -6 25
-9 50 -52 126 -93 163 -87 78 -177 98 -473 102 -124 2 -228 2 -230 0z m65
-393 c70 -69 130 -123 133 -120 143 143 257 248 271 249 50 3 79 -19 87 -67 5
-28 -4 -40 -125 -163 l-131 -132 131 -134 c136 -138 138 -142 116 -197 -8 -21
-58 -42 -82 -34 -10 3 -76 62 -146 131 l-128 125 -132 -131 c-121 -119 -134
-130 -161 -125 -54 11 -86 59 -65 99 7 12 64 75 128 140 64 65 115 123 113
129 -1 6 -55 63 -118 127 -118 118 -139 147 -127 178 14 37 55 63 87 55 12 -2
78 -61 149 -130z"/>
</g>
</svg>
